<?xml version="1.0" ?><!-- Скачано с сайта svg4.ru / Downloaded from svg4.ru -->
<svg width="128" height="128" viewBox="0 0 24 24" fill="none" xmlns="http://www.w3.org/2000/svg"><path d="M6 19V19C4.89543 19 4 18.1046 4 17V13M6 19V20.5C6 20.7761 6.22386 21 6.5 21V21C6.77614 21 7 20.7761 7 20.5V19M6 19H7M18 19V19C19.1046 19 20 18.1046 20 17V13M18 19V20.5C18 20.7761 17.7761 21 17.5 21V21C17.2239 21 17 20.7761 17 20.5V19M18 19H17M4 13V7M4 13H12M20 13V7M20 13H12M7 19H17M4 7V7C4 4.79086 5.79086 3 8 3H16C18.2091 3 20 4.79086 20 7V7M4 7H12M20 7H12M12 7V13" stroke="#000000" stroke-linecap="round" stroke-linejoin="round" stroke-width="2"/><path d="M8 16H8.001" stroke="#000000" stroke-linecap="round" stroke-linejoin="round" stroke-width="2"/><path d="M16 16H16.001" stroke="#000000" stroke-linecap="round" stroke-linejoin="round" stroke-width="2"/></svg>