<?xml version="1.0" encoding="utf-8"?>

<!-- Скачано с сайта svg4.ru / Downloaded from svg4.ru -->
<svg width="128" height="128" version="1.1" id="Icons" xmlns="http://www.w3.org/2000/svg" xmlns:xlink="http://www.w3.org/1999/xlink" 
	 viewBox="0 0 32 32" xml:space="preserve">
<style type="text/css">
	.st0{fill:none;stroke:#000000;stroke-width:2;stroke-linecap:round;stroke-linejoin:round;stroke-miterlimit:10;}
</style>
<g>
	<path d="M21,2H11C9.3,2,8,3.3,8,5v22c0,1.7,1.3,3,3,3h10c1.7,0,3-1.3,3-3V5C24,3.3,22.7,2,21,2z M22,27c0,0.6-0.4,1-1,1H11
		c-0.6,0-1-0.4-1-1V5c0-0.6,0.4-1,1-1h1v0.3C12,5.8,13.2,7,14.7,7h2.6C18.8,7,20,5.8,20,4.3V4h1c0.6,0,1,0.4,1,1V27z"/>
	<path d="M19,24h-6c-0.6,0-1,0.4-1,1s0.4,1,1,1h6c0.6,0,1-0.4,1-1S19.6,24,19,24z"/>
</g>
</svg>